<svg data-v-423bf9ae="" xmlns="http://www.w3.org/2000/svg" viewBox="0 0 633.4545957567078 163" class="iconAbove"><!----><!----><!----><g data-v-423bf9ae="" id="57144ac7-29e6-464f-b4e3-f390fce4aac2" fill="#ffffff" transform="matrix(6.060606294135134,0,0,6.060606294135134,-4.242416620894062,81.78788083154998)"><path d="M8.22 4.27C8.22 3.84 7.87 3.50 7.45 3.50L1.47 3.50C1.04 3.50 0.70 3.84 0.70 4.27C0.70 4.69 1.04 5.05 1.47 5.05L3.68 5.05L3.68 12.53C3.68 12.96 4.03 13.30 4.45 13.30C4.89 13.30 5.22 12.96 5.22 12.53L5.22 5.05L7.45 5.05C7.87 5.05 8.22 4.69 8.22 4.27ZM11.30 13.30C11.31 13.30 11.31 13.29 11.34 13.29C11.34 13.29 11.34 13.30 11.35 13.30L13.83 13.30C15.48 13.30 16.83 11.96 16.83 10.29C16.83 9.23 16.25 8.29 15.41 7.76C15.75 7.31 15.95 6.76 15.95 6.16C15.95 4.69 14.76 3.50 13.29 3.50L11.35 3.50C11.34 3.50 11.34 3.50 11.34 3.50C11.31 3.50 11.31 3.50 11.30 3.50C10.88 3.50 10.53 3.84 10.53 4.27L10.53 12.53C10.53 12.95 10.88 13.30 11.30 13.30ZM12.08 5.05L13.29 5.05C13.90 5.05 14.39 5.54 14.39 6.16C14.39 6.78 13.90 7.29 13.29 7.29L12.08 7.29L12.08 5.05ZM12.08 8.85L13.83 8.85C14.63 8.86 15.27 9.49 15.27 10.29C15.27 11.10 14.63 11.73 13.83 11.75L12.08 11.75L12.08 8.85ZM19.61 13.30C20.05 13.30 20.40 12.96 20.40 12.53L20.40 9.17L24.02 9.17L24.02 12.53C24.02 12.96 24.36 13.30 24.79 13.30C25.23 13.30 25.58 12.96 25.58 12.53L25.58 4.27C25.58 3.84 25.23 3.50 24.79 3.50C24.36 3.50 24.02 3.84 24.02 4.27L24.02 7.63L20.40 7.63L20.40 4.27C20.40 3.84 20.05 3.50 19.61 3.50C19.18 3.50 18.84 3.84 18.84 4.27L18.84 12.53C18.84 12.96 19.18 13.30 19.61 13.30ZM28.53 12.36C28.53 12.94 28.99 13.40 29.57 13.40C30.14 13.40 30.62 12.94 30.62 12.36C30.62 11.79 30.14 11.31 29.57 11.31C28.99 11.31 28.53 11.79 28.53 12.36ZM28.53 6.79C28.53 7.36 28.99 7.83 29.57 7.83C30.14 7.83 30.62 7.36 30.62 6.79C30.62 6.22 30.14 5.74 29.57 5.74C28.99 5.74 28.53 6.22 28.53 6.79ZM32.90 13.30C33.33 13.30 33.68 12.95 33.68 12.53L33.68 9.17L36.95 9.17C37.37 9.17 37.72 8.82 37.72 8.39C37.72 7.98 37.37 7.62 36.95 7.62L33.68 7.62L33.68 5.05L37.48 5.05C37.88 5.05 38.25 4.70 38.25 4.27C38.25 3.85 37.88 3.50 37.48 3.50L32.94 3.50C32.91 3.50 32.91 3.50 32.91 3.50C32.91 3.50 32.90 3.50 32.90 3.50C32.47 3.50 32.13 3.85 32.13 4.27L32.13 12.53C32.13 12.95 32.47 13.30 32.90 13.30ZM43.16 13.30C44.16 13.30 44.98 13.01 45.67 12.38C45.99 12.08 45.85 11.66 45.67 11.47C45.49 11.24 44.91 11.20 44.62 11.51C44.27 11.77 43.67 11.90 43.16 11.86C42.67 11.82 42.11 11.56 41.82 11.23C41.57 10.99 41.41 10.63 41.34 10.30L45.79 10.30C46.19 10.30 46.48 10.08 46.52 9.74C46.54 9.72 46.54 9.65 46.54 9.62C46.54 9.62 46.54 9.62 46.54 9.62C46.54 9.62 46.54 9.62 46.54 9.62C46.54 9.59 46.54 9.56 46.54 9.55C46.42 7.66 44.98 6.30 43.16 6.30C41.24 6.30 39.76 7.90 39.75 9.80C39.76 11.70 41.24 13.29 43.16 13.30ZM43.16 7.63C44.38 7.73 45.09 8.55 45.23 9.11L41.27 9.11C41.38 8.54 41.97 7.69 43.16 7.63ZM51.69 13.30C52.68 13.30 53.51 13.01 54.19 12.38C54.52 12.08 54.38 11.66 54.19 11.47C54.01 11.24 53.44 11.20 53.14 11.51C52.79 11.77 52.19 11.90 51.69 11.86C51.20 11.82 50.64 11.56 50.34 11.23C50.09 10.99 49.94 10.63 49.87 10.30L54.32 10.30C54.71 10.30 55.01 10.08 55.05 9.74C55.06 9.72 55.06 9.65 55.06 9.62C55.06 9.62 55.06 9.62 55.06 9.62C55.06 9.62 55.06 9.62 55.06 9.62C55.06 9.59 55.06 9.56 55.06 9.55C54.95 7.66 53.51 6.30 51.69 6.30C49.77 6.30 48.29 7.90 48.27 9.80C48.29 11.70 49.77 13.29 51.69 13.30ZM51.69 7.63C52.91 7.73 53.62 8.55 53.76 9.11L49.80 9.11C49.91 8.54 50.50 7.69 51.69 7.63ZM63.63 9.81C63.63 9.81 63.63 9.81 63.63 9.81C63.63 9.80 63.63 9.80 63.63 9.80L63.63 4.26C63.63 3.85 63.29 3.50 62.87 3.50C62.44 3.50 62.10 3.85 62.10 4.26L62.10 6.89C61.59 6.52 60.91 6.30 60.23 6.30C58.34 6.30 56.83 7.90 56.83 9.81C56.83 11.70 58.34 13.30 60.23 13.30C60.93 13.30 61.60 13.06 62.13 12.70C62.20 13.03 62.50 13.30 62.87 13.30C63.29 13.30 63.63 12.95 63.63 12.54ZM61.54 8.40C61.89 8.75 62.10 9.25 62.10 9.81C62.10 10.35 61.89 10.85 61.54 11.20C61.19 11.56 60.75 11.77 60.23 11.77C59.72 11.77 59.26 11.56 58.91 11.20C58.56 10.85 58.35 10.35 58.35 9.81C58.35 9.25 58.56 8.75 58.91 8.40C59.26 8.04 59.72 7.83 60.23 7.83C60.75 7.83 61.19 8.04 61.54 8.40ZM66.53 12.54C66.53 12.95 66.86 13.30 67.28 13.30C67.66 13.30 67.96 13.03 68.03 12.70C68.56 13.06 69.23 13.30 69.93 13.30C71.82 13.30 73.33 11.70 73.33 9.81C73.33 7.90 71.82 6.30 69.93 6.30C69.24 6.30 68.57 6.52 68.05 6.89L68.05 4.26C68.05 3.85 67.72 3.50 67.28 3.50C66.86 3.50 66.53 3.85 66.53 4.26L66.53 9.80C66.53 9.80 66.53 9.80 66.53 9.81C66.53 9.81 66.53 9.81 66.53 9.81L66.53 12.54ZM68.61 8.40C68.96 8.04 69.41 7.83 69.93 7.83C70.43 7.83 70.90 8.04 71.25 8.40C71.60 8.75 71.81 9.25 71.81 9.81C71.81 10.35 71.60 10.85 71.25 11.20C70.90 11.56 70.43 11.77 69.93 11.77C69.41 11.77 68.96 11.56 68.61 11.20C68.26 10.85 68.05 10.35 68.05 9.81C68.05 9.25 68.26 8.75 68.61 8.40ZM81.69 7.06C81.69 6.64 81.35 6.30 80.95 6.30C80.58 6.30 80.30 6.57 80.22 6.92C79.69 6.54 79.06 6.30 78.36 6.30C77.41 6.30 76.58 6.71 75.98 7.35C75.38 7.98 75.03 8.85 75.03 9.81C75.03 10.77 75.38 11.63 75.98 12.28C76.58 12.91 77.41 13.30 78.36 13.30C78.36 13.30 78.36 13.30 78.36 13.30C79.06 13.30 79.69 13.08 80.22 12.70C80.30 13.03 80.58 13.30 80.95 13.30C81.35 13.30 81.69 12.96 81.69 12.56L81.69 9.81C81.69 9.81 81.69 9.81 81.69 9.81C81.69 9.81 81.69 9.81 81.69 9.81L81.69 7.06ZM79.66 11.26C79.32 11.61 78.85 11.80 78.36 11.80C77.85 11.80 77.38 11.61 77.06 11.26C76.72 10.89 76.52 10.39 76.52 9.81C76.52 9.23 76.72 8.72 77.06 8.37C77.38 7.99 77.85 7.80 78.36 7.80C78.85 7.80 79.32 7.99 79.66 8.37C80.00 8.72 80.21 9.23 80.21 9.81C80.21 10.39 80.00 10.89 79.66 11.26ZM87.50 13.30C87.50 13.30 87.50 13.30 87.50 13.30C88.34 13.30 89.12 12.99 89.73 12.56C90.05 12.28 90.10 11.83 89.88 11.52C89.60 11.19 89.14 11.13 88.83 11.37C88.47 11.63 88.00 11.82 87.50 11.82C86.37 11.82 85.43 10.89 85.43 9.81C85.43 8.74 86.37 7.80 87.50 7.80C88.02 7.80 88.47 7.98 88.83 8.25C89.15 8.50 89.60 8.44 89.88 8.11C90.10 7.80 90.05 7.32 89.73 7.07C89.12 6.61 88.34 6.30 87.50 6.30C85.57 6.31 83.94 7.87 83.94 9.81C83.94 11.73 85.57 13.30 87.50 13.30ZM93.20 13.30C93.63 13.30 93.98 12.95 93.98 12.53L93.98 11.30L94.75 10.53L96.81 13.02C96.95 13.20 97.17 13.30 97.40 13.30C97.57 13.30 97.75 13.24 97.89 13.12C98.22 12.85 98.27 12.36 98.00 12.03L95.84 9.44L97.94 7.34C98.25 7.04 98.25 6.55 97.94 6.24C97.65 5.95 97.15 5.95 96.85 6.24L93.98 9.11L93.98 4.27C93.98 3.85 93.63 3.50 93.20 3.50C92.76 3.50 92.43 3.85 92.43 4.27L92.43 12.53C92.43 12.95 92.76 13.30 93.20 13.30ZM100.03 12.33L100.03 12.33C100.59 12.78 101.43 13.29 102.52 13.30L102.52 13.30C103.21 13.30 103.84 13.09 104.34 12.74L104.34 12.74C104.85 12.38 105.22 11.80 105.22 11.12L105.22 11.12C105.22 10.79 105.13 10.47 104.96 10.19L104.96 10.19C104.72 9.80 104.34 9.53 103.96 9.37L103.96 9.37C103.56 9.17 103.12 9.04 102.66 8.96L102.65 8.96L102.63 8.95L102.63 8.95C102.16 8.86 101.79 8.74 101.61 8.61L101.61 8.61C101.51 8.55 101.47 8.50 101.46 8.47L101.46 8.47C101.43 8.43 101.43 8.41 101.43 8.36L101.43 8.36C101.43 8.29 101.47 8.16 101.65 8.04L101.65 8.04C101.84 7.90 102.14 7.78 102.49 7.78L102.49 7.78C102.94 7.78 103.33 8.01 103.78 8.30L103.78 8.30C104.13 8.54 104.59 8.44 104.82 8.11L104.82 8.11C105.03 7.76 104.93 7.29 104.59 7.07L104.59 7.07L104.59 7.07C104.15 6.76 103.46 6.30 102.49 6.30L102.49 6.30C101.85 6.30 101.26 6.48 100.77 6.82L100.77 6.82C100.31 7.17 99.95 7.71 99.95 8.36L99.95 8.36C99.95 8.68 100.03 8.99 100.18 9.24L100.18 9.24C100.44 9.62 100.77 9.87 101.15 10.05L101.15 10.05C101.51 10.22 101.93 10.33 102.37 10.42L102.38 10.42L102.38 10.42L102.38 10.42L102.38 10.42C102.89 10.51 103.31 10.67 103.50 10.81L103.50 10.81C103.61 10.88 103.67 10.93 103.68 10.98L103.68 10.98C103.71 11.02 103.73 11.05 103.73 11.12L103.73 11.12C103.73 11.23 103.67 11.37 103.47 11.54L103.47 11.54C103.25 11.68 102.90 11.80 102.52 11.80L102.52 11.80C101.98 11.82 101.35 11.49 100.98 11.19L100.98 11.19C100.67 10.92 100.18 10.96 99.93 11.30L99.93 11.30C99.68 11.61 99.72 12.08 100.03 12.33Z"></path></g><!----><g data-v-423bf9ae="" id="77ad882b-4e68-46f6-8764-a9fda22b0259" transform="matrix(1.4350720201417715,0,0,1.4350720201417715,264.74389248381516,-7.237454298590848)" stroke="none" fill="#BEAE60"><path d="M61.443 37.606c-19.747.261-19.02 0-20.614.407-1.124-.044-2.433.426-2.919.622-2.82 1.138-3.392 3.065-3.614 6.026-.27 3.605-.367 7.232-.055 10.833.357 4.12 1.668 6.025 6.738 6.54.062 1.47.306 2.78.25 4.352.68.68.924.921 1.35 1.156a.749.749 0 001.128.108c2.373-2.259 4.902-3.788 7.622-5.75l10.268-.052c4.034-.02 7.299-3.32 7.279-7.354l-.05-9.61c-.02-4.064-3.322-7.294-7.383-7.278zm.146 22.742l-10.508.054a.75.75 0 00-.437.143c-2.34 1.701-4.635 3.118-6.824 4.986-.136-1.549-.305-2.956-.443-4.677a.75.75 0 00-.747-.69 5.813 5.813 0 01-5.813-5.831l-.008-9.25c.006-3.17 2.591-5.774 5.762-5.803 25.927-.24 17.024-.175 18.941-.175 3.2 0 5.798 2.583 5.814 5.786l.05 9.611a5.812 5.812 0 01-5.787 5.846zM25.688 25.458c.493 0 1.021-.175 1.617-.637 2.64-2.052 7.057-6.515 7.27-9.65.27-4.026-5.103-7.353-9.117-2.847-1.376-1.52-3.698-2.181-5.641-1.481-2.291.824-3.784 3.44-3.328 5.833.746 3.907 7.288 8.782 9.199 8.782zm-4.204-13.402c1.323 0 2.658.718 3.3 1.886.252.46.954.565 1.288.044.875-1.367 2.61-2.593 4.24-2.285 1.602.3 2.868 1.843 2.765 3.369-.174 2.586-4.508 6.87-6.692 8.566-.653.507-.882.402-2.043-.278-2.233-1.305-5.897-4.435-6.38-6.963-.369-1.937 1.147-4.339 3.522-4.339z"></path><path d="M54.107 42.324c-2.965-1.028-6.92.291-8.817 2.943-1.845 2.577-1.852 6.325-.018 8.91 4.182 5.892 13.582 3.159 13.928-4.077.155-3.257-2.13-6.746-5.093-7.776zm-7.611 10.984c-1.476-2.08-1.47-5.094.013-7.168 1.513-2.115 4.769-3.211 7.106-2.399 2.34.813 4.21 3.692 4.087 6.288-.28 5.818-7.838 8.024-11.206 3.28z"></path><path d="M49.11 48.317a.745.745 0 00.42-.13l.346-.234a.75.75 0 10-.843-1.24l-.343.233a.75.75 0 00.42 1.37zM52.95 47.86l.096.048c.1.04.176.109.382.109.27 0 .525-.162.657-.43.185-.37.001-.836-.37-1.021l-.103-.052a.75.75 0 10-.661 1.347zM54.27 50.047a.75.75 0 00-.987.39c-.648 1.5-2.72 1.716-3.657.362a.75.75 0 10-1.233.853c1.606 2.327 5.147 1.969 6.267-.619a.75.75 0 00-.39-.986zM36.887 37.164a.75.75 0 00.27.051c.009 0 .017-.005.026-.005.017.011.031.008.042-.008a.73.73 0 00.68-.692c.153-2.513.397-4.48.6-6.982l5.385-.03a2.826 2.826 0 002.812-2.849l-.136-18.555a2.837 2.837 0 00-2.816-2.807C5.462 5.146 8.074 5.09 7.582 5.203c-1.38.137-2.477.82-3.063 2.32-.543 1.39-.402 1.577-.294 18.886.024 3.684 1.003 5.065 5.364 5.022 5.859-.057 11.476-.159 17.46-.193 1.745 1.928 3.732 3.73 5.764 5.323 1.043.817 2.05.46 4.074.603zm8.179-29.06c.003 19.003.472 18.771-.247 19.498-.68.69-1.19.278-7.011.43a.75.75 0 00-.744.694c-.173 2.309-.381 4.057-.547 6.154-2.793-2.403-5.697-4.164-8.75-6.358-.373-.268.578-.09-19.534-.14a1.33 1.33 0 01-1.328-1.329c.137-19.49-.346-19.292.39-20.025.414-.41.843-.367.944-.387l35.505.146a1.332 1.332 0 011.322 1.318zM52.506 26.904l1.9-4.757c.37-.924-1.024-1.475-1.392-.557l-1.9 4.757c-.37.924 1.025 1.476 1.392.557zM56.349 29.576a23.544 23.544 0 003.438-3.018c.678-.724-.415-1.75-1.095-1.026a22.014 22.014 0 01-3.218 2.825c-.804.578.066 1.798.875 1.219zM56.931 32.977c5.661 1.204 5.572 1.21 5.736 1.21.893 0 1.032-1.297.156-1.484l-5.578-1.193c-.972-.206-1.283 1.26-.314 1.467z"></path></g><!----></svg>